<?xml version="1.0" encoding="UTF-8"?>
<svg id="Layer_1" xmlns="http://www.w3.org/2000/svg" version="1.1" viewBox="0 0 200 50">
  <defs>
    <style>
      .st0 {
        fill: #fff;
      }

      .st1 {
        fill: #6debff;
      }
    </style>
  </defs>
  <path class="st1" d="M57.75,0l-3.88,6.86c-.13.2-.71.08-.93.12h-15.26s-17.89,29.11-17.89,29.11l-5.08-8.52L26.64,7.93h-8.42c-.41-.71-.82-1.41-1.23-2.11C15.81,3.83,14.65,1.85,13.58,0h44.17Z"/>
  <path class="st0" d="M83.22,19.23l-10.52,23.5h-5.56l-10.49-23.5h6.08l7.4,16.79,7.5-16.79h5.59ZM133.51,18v-.19h-5.42v1.91c1.7-.81,3.51-1.38,5.42-1.72ZM107.55,16.3c-1,0-1.81.28-2.43.84-.63.56-.94,1.25-.94,2.08s.31,1.52.94,2.08c.63.56,1.44.84,2.43.84s1.81-.29,2.43-.86c.63-.57.94-1.29.94-2.17,0-.81-.31-1.48-.94-2.01-.63-.54-1.44-.81-2.43-.81ZM133.51,23.27v19.46h-5.18v-2.08c-1.34,1.57-3.29,2.35-5.84,2.35-1.76,0-3.35-.38-4.78-1.14-1.42-.76-2.54-1.85-3.35-3.26-.81-1.41-1.22-3.04-1.22-4.9s.4-3.49,1.22-4.9c.81-1.41,1.93-2.5,3.35-3.26,1.42-.76,3.02-1.14,4.78-1.14,2.38,0,4.25.73,5.59,2.18v-1.02l1.11-.62c1.36-.76,2.8-1.31,4.3-1.67ZM128.19,33.7c0-1.52-.45-2.74-1.35-3.64-.9-.91-2.04-1.36-3.4-1.36s-2.54.45-3.44,1.36c-.9.91-1.35,2.12-1.35,3.64s.45,2.74,1.35,3.64,2.05,1.36,3.44,1.36,2.5-.45,3.4-1.36c.9-.91,1.35-2.12,1.35-3.64ZM100.78,28.89c.88,1.41,1.32,3.01,1.32,4.8s-.44,3.39-1.32,4.8c-.88,1.41-2.1,2.51-3.65,3.31-1.55.79-3.31,1.19-5.28,1.19s-3.73-.4-5.3-1.19c-1.56-.79-2.78-1.9-3.66-3.31-.88-1.41-1.32-3.01-1.32-4.8s.44-3.39,1.32-4.8c.88-1.41,2.1-2.51,3.66-3.31,1.56-.79,3.33-1.19,5.3-1.19s3.73.4,5.28,1.19c1.55.79,2.77,1.9,3.65,3.31ZM96.61,33.7c0-1.52-.45-2.74-1.34-3.64-.89-.91-2.03-1.36-3.42-1.36s-2.54.45-3.44,1.36c-.9.91-1.35,2.12-1.35,3.64s.45,2.74,1.35,3.64c.9.91,2.05,1.36,3.44,1.36s2.53-.45,3.42-1.36c.89-.91,1.34-2.12,1.34-3.64ZM104.84,42.73h5.42v-18.06h-5.42v18.06ZM184.99,36.35c.46,1.43,1.3,2.56,2.52,3.37,1.22.82,2.67,1.23,4.36,1.23,1.13,0,2.18-.2,3.14-.59.96-.39,1.78-.97,2.45-1.73l1.39,1.54c-.81.94-1.82,1.66-3.02,2.15-1.2.49-2.54.74-3.99.74-1.88,0-3.54-.39-5-1.16s-2.59-1.84-3.4-3.21c-.81-1.36-1.22-2.91-1.22-4.63s.39-3.27,1.16-4.63c.78-1.36,1.85-2.43,3.21-3.19,1.37-.76,2.92-1.14,4.65-1.14,1.62,0,3.09.36,4.39,1.07,1.31.72,2.35,1.71,3.13,2.99.78,1.28,1.19,2.73,1.23,4.36l-15.01,2.82ZM197.53,32.22c-.28-1.48-.98-2.69-2.12-3.64-1.13-.95-2.52-1.43-4.17-1.43-1.27,0-2.41.29-3.42.86-1.01.57-1.79,1.37-2.36,2.38-.57,1.02-.85,2.19-.85,3.51,0,.34.01.58.03.74l12.89-2.42ZM163.85,17.92v10.61c.76-1.14,1.74-2.01,2.94-2.6,1.19-.59,2.53-.89,4.01-.89,1.71,0,3.26.38,4.65,1.12,1.39.75,2.48,1.81,3.27,3.17.79,1.37,1.18,2.92,1.18,4.67s-.39,3.3-1.18,4.67c-.79,1.37-1.88,2.43-3.27,3.19-1.39.76-2.94,1.14-4.65,1.14-1.53,0-2.9-.31-4.12-.94-1.22-.63-2.19-1.53-2.94-2.72v3.49h-2.36v-24.91h2.47ZM163.82,34c0,1.34.3,2.54.89,3.59.59,1.05,1.4,1.86,2.43,2.43,1.03.57,2.19.86,3.49.86s2.43-.29,3.47-.86c1.04-.57,1.86-1.38,2.45-2.43.59-1.05.89-2.25.89-3.59s-.3-2.54-.89-3.59c-.59-1.05-1.41-1.86-2.45-2.43-1.04-.57-2.2-.86-3.47-.86s-2.46.29-3.49.86c-1.03.57-1.84,1.38-2.43,2.43-.59,1.05-.89,2.25-.89,3.59ZM138.96,42.83v-21.49c2.89.2,5.53.97,7.92,2.32l.94-1.95c-2.96-1.72-6.36-2.59-10.18-2.59s-7.13.86-10.14,2.59l.94,1.95c2.45-1.36,5.11-2.14,7.95-2.32v21.49h2.57ZM158.5,42.83v-17.66h-2.47v9.27c0,2.01-.56,3.59-1.67,4.72-1.11,1.13-2.63,1.7-4.55,1.7-1.76,0-3.11-.48-4.06-1.44-.95-.96-1.42-2.37-1.42-4.23v-10.01h-1.78l-.02.05-.09-.05h-.58v10.24c0,2.48.69,4.37,2.07,5.66,1.38,1.29,3.26,1.93,5.64,1.93,1.46,0,2.76-.3,3.89-.89,1.13-.59,2.03-1.43,2.67-2.5v3.22h2.36ZM13.03,24.48l5.78-9.5C16.07,10.2,12.71,4.62,10.1.06H2.85C.64.06-.72,2.38.4,4.21c3.95,6.43,8.52,13.59,12.14,19.49l.48.77ZM41.15,9.93c-1.41,2.4-3.63,6.15-5,8.44-2.24,3.8-5.39,9.04-7.71,12.99-.29-.43-.72-1.08-1.13-1.71l-5.69,9.25c2.08,3.44,4.9,8.1,6.71,11.09,7.88-13.24,15.83-26.81,23.68-40.06h-10.85Z"/>
</svg>
