<?xml version="1.0" encoding="UTF-8"?>
<svg xmlns="http://www.w3.org/2000/svg" viewBox="0 0 58 50">
  <path fill="#000" d="M58,0l-3.9,6.86c-.13.2-.72.08-.93.12h-15.33l-17.97,29.11-5.11-8.52L26.75,7.93h-8.46c-.41-.71-.83-1.41-1.24-2.11C15.88,3.83,14.71,1.85,13.64,0h44.36Z"/>
  <path fill="#000" d="M13.08,24.48l5.8-9.5C16.14,10.2,12.77,4.62,10.14.06H2.86C.65.06-.73,2.38.4,4.21c3.96,6.43,8.56,13.59,12.19,19.49l.49.77h0ZM41.34,9.93c-1.42,2.4-3.65,6.15-5.03,8.44-2.25,3.8-5.42,9.04-7.75,12.99-.29-.43-.72-1.08-1.13-1.71l-5.72,9.25c2.09,3.44,4.92,8.1,6.74,11.09,7.92-13.24,15.9-26.81,23.78-40.06h-10.9,0Z"/>
</svg>
